<?xml version="1.0" encoding="UTF-8"?> <svg xmlns="http://www.w3.org/2000/svg" xml:space="preserve" viewBox="0 0 184.3 70.8"> <style> .st1{fill:#ce0e2d}.st2{fill:#ff9e1b}.st3{fill:#ff671d} </style> <g id="BCD"> <path fill="#111c4e" d="M13.1 32.5c-.1 1.3-.5 7.6-.6 9.1h7c5.1 0 7.1-1.9 7.2-4.5.1-2.6-2.1-4.6-7.1-4.6h-6.5M12 49.7c-.1 1.4-.6 9.6-.7 11.1h7c5.6 0 9.8-1.5 10.1-5.3.3-3.8-2.5-5.8-9.2-5.8H12m8.1 20.1H0l3-46.2h16.9c3.6 0 6.7.3 9.2 1.1 5.4 1.9 8.1 5.8 8.1 10.6 0 4.9-3 8.4-5.4 9 3.7 1.1 7.2 5.6 7.1 10.6 0 5.2-2.1 14.9-18.8 14.9m50.2 1h-.8C54.1 70.4 45.3 60.2 46.3 46c1-13.8 11.8-23.4 25.6-23.4h.1c13.7.1 20.2 9.7 20.2 9.7s-3.1 3-4 3.7c-.8.6-1.9 1-3.1 1-1.3 0-2.9-.5-4.5-1.6-2.3-1.6-5-2.8-8.7-2.8h-.3c-7.6 0-13.8 5.7-14.3 14.2-.4 9.2 6.9 13.4 12.6 13.6h.7c8.8 0 13.3-5.9 13.3-5.9l6.3 7.3c.1 0-6.4 9-19.9 9m40.9-37.3c-.1 1.6-1.6 24.9-1.7 26.2h.2c7.8 0 10.3 0 13.3-1.7 4.6-2.5 6.2-8.1 6.2-12.3.1-4.8-2.3-8.2-4.8-9.9-3.2-2-6-2.3-13.2-2.3M110 69.8H97.6c.1-1 2.9-46.2 2.9-46.2h12.1c6.2 0 11.1.5 14.9 1.9 11.2 4.2 13.6 15.3 12.9 21.9-.5 5.6-3.1 14.3-11.4 19.1-4.3 2.5-8.7 3.3-19 3.3"></path> <circle cx="154.2" cy="18.9" r="11.6" class="st1"></circle> <circle cx="169.4" cy="46.6" r="14.9" class="st1"></circle> <circle cx="71.1" cy="46.6" r="5" class="st2"></circle> <circle cx="129.7" cy="8.6" r="8.6" class="st3"></circle> <circle cx="107.7" cy="9.1" r="7.1" class="st3"></circle> <circle cx="89.3" cy="16.3" r="5.8" class="st2"></circle> </g> </svg> 